<svg xmlns="http://www.w3.org/2000/svg" xmlns:xlink="http://www.w3.org/1999/xlink" version="1.1" width="256" height="256" viewBox="0 0 256 256" xml:space="preserve">
<desc>Created with Fabric.js 1.7.22</desc>
<defs>
</defs>
<g transform="translate(128 128) scale(0.72 0.72)" style="">
	<g style="stroke: none; stroke-width: 0; stroke-dasharray: none; stroke-linecap: butt; stroke-linejoin: miter; stroke-miterlimit: 10; fill: none; fill-rule: nonzero; opacity: 1;" transform="translate(-175.05 -175.05000000000004) scale(3.89 3.89)" >
	<path d="M 69.974 62.503 c -0.138 0 -0.277 -0.028 -0.411 -0.089 L 46.464 51.962 c -0.503 -0.228 -0.727 -0.82 -0.499 -1.323 s 0.818 -0.728 1.323 -0.499 l 23.099 10.452 c 0.503 0.228 0.727 0.82 0.499 1.323 C 70.719 62.284 70.354 62.503 69.974 62.503 z" style="stroke: none; stroke-width: 1; stroke-dasharray: none; stroke-linecap: butt; stroke-linejoin: miter; stroke-miterlimit: 10; fill: rgb(0,0,0); fill-rule: nonzero; opacity: 1;" transform=" matrix(1 0 0 1 0 0) " stroke-linecap="round" />
	<path d="M 63.823 82.183 c -0.238 0 -0.476 -0.084 -0.667 -0.255 c -0.411 -0.368 -0.446 -1.001 -0.078 -1.412 l 8.327 -9.304 c 0.369 -0.412 1.001 -0.445 1.412 -0.078 c 0.411 0.368 0.446 1.001 0.078 1.412 l -8.327 9.304 C 64.371 82.07 64.098 82.183 63.823 82.183 z" style="stroke: none; stroke-width: 1; stroke-dasharray: none; stroke-linecap: butt; stroke-linejoin: miter; stroke-miterlimit: 10; fill: rgb(0,0,0); fill-rule: nonzero; opacity: 1;" transform=" matrix(1 0 0 1 0 0) " stroke-linecap="round" />
	<path d="M 54.814 82.732 c -0.196 0 -0.394 -0.058 -0.567 -0.177 l -13.3 -9.183 c -0.454 -0.314 -0.568 -0.937 -0.254 -1.392 c 0.313 -0.455 0.936 -0.567 1.391 -0.255 l 13.3 9.183 c 0.454 0.314 0.568 0.937 0.255 1.392 C 55.444 82.582 55.132 82.732 54.814 82.732 z" style="stroke: none; stroke-width: 1; stroke-dasharray: none; stroke-linecap: butt; stroke-linejoin: miter; stroke-miterlimit: 10; fill: rgb(0,0,0); fill-rule: nonzero; opacity: 1;" transform=" matrix(1 0 0 1 0 0) " stroke-linecap="round" />
	<path d="M 36.449 60.832 c -0.064 0 -0.129 -0.006 -0.195 -0.019 c -0.542 -0.107 -0.894 -0.634 -0.787 -1.176 l 0.868 -4.393 c 0.107 -0.54 0.63 -0.891 1.175 -0.787 c 0.542 0.107 0.894 0.634 0.787 1.176 l -0.868 4.393 C 37.334 60.502 36.917 60.832 36.449 60.832 z" style="stroke: none; stroke-width: 1; stroke-dasharray: none; stroke-linecap: butt; stroke-linejoin: miter; stroke-miterlimit: 10; fill: rgb(0,0,0); fill-rule: nonzero; opacity: 1;" transform=" matrix(1 0 0 1 0 0) " stroke-linecap="round" />
	<path d="M 36.865 41.784 c -0.447 0 -0.855 -0.302 -0.969 -0.756 l -2.018 -8.026 l -2.078 -7.17 c -0.154 -0.53 0.152 -1.085 0.682 -1.239 c 0.529 -0.154 1.085 0.152 1.239 0.682 l 2.087 7.205 l 2.027 8.061 c 0.135 0.536 -0.19 1.079 -0.726 1.213 C 37.028 41.774 36.946 41.784 36.865 41.784 z" style="stroke: none; stroke-width: 1; stroke-dasharray: none; stroke-linecap: butt; stroke-linejoin: miter; stroke-miterlimit: 10; fill: rgb(0,0,0); fill-rule: nonzero; opacity: 1;" transform=" matrix(1 0 0 1 0 0) " stroke-linecap="round" />
	<path d="M 23.088 13.565 c -0.192 0 -0.387 -0.055 -0.559 -0.171 l -5.617 -3.792 c -0.458 -0.309 -0.578 -0.93 -0.269 -1.388 c 0.308 -0.458 0.931 -0.58 1.388 -0.269 l 5.617 3.792 c 0.458 0.309 0.578 0.93 0.269 1.388 C 23.725 13.411 23.41 13.565 23.088 13.565 z" style="stroke: none; stroke-width: 1; stroke-dasharray: none; stroke-linecap: butt; stroke-linejoin: miter; stroke-miterlimit: 10; fill: rgb(0,0,0); fill-rule: nonzero; opacity: 1;" transform=" matrix(1 0 0 1 0 0) " stroke-linecap="round" />
	<path d="M 30.307 22.916 c -3.034 0 -5.502 -2.468 -5.502 -5.502 s 2.468 -5.502 5.502 -5.502 s 5.502 2.468 5.502 5.502 S 33.341 22.916 30.307 22.916 z M 30.307 13.912 c -1.931 0 -3.502 1.571 -3.502 3.502 s 1.571 3.502 3.502 3.502 s 3.502 -1.571 3.502 -3.502 S 32.238 13.912 30.307 13.912 z" style="stroke: none; stroke-width: 1; stroke-dasharray: none; stroke-linecap: butt; stroke-linejoin: miter; stroke-miterlimit: 10; fill: rgb(0,0,0); fill-rule: nonzero; opacity: 1;" transform=" matrix(1 0 0 1 0 0) " stroke-linecap="round" />
	<path d="M 78.133 71.004 c -3.034 0 -5.502 -2.468 -5.502 -5.502 S 75.099 60 78.133 60 s 5.502 2.468 5.502 5.502 S 81.167 71.004 78.133 71.004 z M 78.133 62 c -1.931 0 -3.502 1.571 -3.502 3.502 s 1.571 3.502 3.502 3.502 s 3.502 -1.571 3.502 -3.502 S 80.063 62 78.133 62 z" style="stroke: none; stroke-width: 1; stroke-dasharray: none; stroke-linecap: butt; stroke-linejoin: miter; stroke-miterlimit: 10; fill: rgb(0,0,0); fill-rule: nonzero; opacity: 1;" transform=" matrix(1 0 0 1 0 0) " stroke-linecap="round" />
	<path d="M 36.604 49.242 h -1.209 c -0.552 0 -1 -0.447 -1 -1 s 0.448 -1 1 -1 h 1.209 c 0.552 0 1 0.447 1 1 S 37.157 49.242 36.604 49.242 z" style="stroke: none; stroke-width: 1; stroke-dasharray: none; stroke-linecap: butt; stroke-linejoin: miter; stroke-miterlimit: 10; fill: rgb(0,0,0); fill-rule: nonzero; opacity: 1;" transform=" matrix(1 0 0 1 0 0) " stroke-linecap="round" />
	<path d="M 42.663 49.242 h -1.209 c -0.552 0 -1 -0.447 -1 -1 s 0.448 -1 1 -1 h 1.209 c 0.552 0 1 0.447 1 1 S 43.215 49.242 42.663 49.242 z" style="stroke: none; stroke-width: 1; stroke-dasharray: none; stroke-linecap: butt; stroke-linejoin: miter; stroke-miterlimit: 10; fill: rgb(0,0,0); fill-rule: nonzero; opacity: 1;" transform=" matrix(1 0 0 1 0 0) " stroke-linecap="round" />
	<path d="M 39.029 46.817 c -0.552 0 -1 -0.447 -1 -1 v -1.209 c 0 -0.552 0.448 -1 1 -1 s 1 0.448 1 1 v 1.209 C 40.029 46.37 39.582 46.817 39.029 46.817 z" style="stroke: none; stroke-width: 1; stroke-dasharray: none; stroke-linecap: butt; stroke-linejoin: miter; stroke-miterlimit: 10; fill: rgb(0,0,0); fill-rule: nonzero; opacity: 1;" transform=" matrix(1 0 0 1 0 0) " stroke-linecap="round" />
	<path d="M 39.029 52.876 c -0.552 0 -1 -0.447 -1 -1 v -1.209 c 0 -0.553 0.448 -1 1 -1 s 1 0.447 1 1 v 1.209 C 40.029 52.429 39.582 52.876 39.029 52.876 z" style="stroke: none; stroke-width: 1; stroke-dasharray: none; stroke-linecap: butt; stroke-linejoin: miter; stroke-miterlimit: 10; fill: rgb(0,0,0); fill-rule: nonzero; opacity: 1;" transform=" matrix(1 0 0 1 0 0) " stroke-linecap="round" />
	<path d="M 8.574 5.634 H 7.365 c -0.552 0 -1 -0.448 -1 -1 s 0.448 -1 1 -1 h 1.209 c 0.552 0 1 0.448 1 1 S 9.126 5.634 8.574 5.634 z" style="stroke: none; stroke-width: 1; stroke-dasharray: none; stroke-linecap: butt; stroke-linejoin: miter; stroke-miterlimit: 10; fill: rgb(0,0,0); fill-rule: nonzero; opacity: 1;" transform=" matrix(1 0 0 1 0 0) " stroke-linecap="round" />
	<path d="M 14.632 5.634 h -1.209 c -0.552 0 -1 -0.448 -1 -1 s 0.448 -1 1 -1 h 1.209 c 0.552 0 1 0.448 1 1 S 15.185 5.634 14.632 5.634 z" style="stroke: none; stroke-width: 1; stroke-dasharray: none; stroke-linecap: butt; stroke-linejoin: miter; stroke-miterlimit: 10; fill: rgb(0,0,0); fill-rule: nonzero; opacity: 1;" transform=" matrix(1 0 0 1 0 0) " stroke-linecap="round" />
	<path d="M 10.999 3.209 c -0.552 0 -1 -0.448 -1 -1 V 1 c 0 -0.552 0.448 -1 1 -1 s 1 0.448 1 1 v 1.209 C 11.999 2.761 11.551 3.209 10.999 3.209 z" style="stroke: none; stroke-width: 1; stroke-dasharray: none; stroke-linecap: butt; stroke-linejoin: miter; stroke-miterlimit: 10; fill: rgb(0,0,0); fill-rule: nonzero; opacity: 1;" transform=" matrix(1 0 0 1 0 0) " stroke-linecap="round" />
	<path d="M 10.999 9.267 c -0.552 0 -1 -0.448 -1 -1 V 7.058 c 0 -0.552 0.448 -1 1 -1 s 1 0.448 1 1 v 1.209 C 11.999 8.819 11.551 9.267 10.999 9.267 z" style="stroke: none; stroke-width: 1; stroke-dasharray: none; stroke-linecap: butt; stroke-linejoin: miter; stroke-miterlimit: 10; fill: rgb(0,0,0); fill-rule: nonzero; opacity: 1;" transform=" matrix(1 0 0 1 0 0) " stroke-linecap="round" />
	<path d="M 56.857 86.366 h -1.209 c -0.553 0 -1 -0.447 -1 -1 s 0.447 -1 1 -1 h 1.209 c 0.553 0 1 0.447 1 1 S 57.41 86.366 56.857 86.366 z" style="stroke: none; stroke-width: 1; stroke-dasharray: none; stroke-linecap: butt; stroke-linejoin: miter; stroke-miterlimit: 10; fill: rgb(0,0,0); fill-rule: nonzero; opacity: 1;" transform=" matrix(1 0 0 1 0 0) " stroke-linecap="round" />
	<path d="M 62.916 86.366 h -1.209 c -0.553 0 -1 -0.447 -1 -1 s 0.447 -1 1 -1 h 1.209 c 0.553 0 1 0.447 1 1 S 63.469 86.366 62.916 86.366 z" style="stroke: none; stroke-width: 1; stroke-dasharray: none; stroke-linecap: butt; stroke-linejoin: miter; stroke-miterlimit: 10; fill: rgb(0,0,0); fill-rule: nonzero; opacity: 1;" transform=" matrix(1 0 0 1 0 0) " stroke-linecap="round" />
	<path d="M 59.282 83.941 c -0.553 0 -1 -0.447 -1 -1 v -1.209 c 0 -0.553 0.447 -1 1 -1 s 1 0.447 1 1 v 1.209 C 60.282 83.494 59.835 83.941 59.282 83.941 z" style="stroke: none; stroke-width: 1; stroke-dasharray: none; stroke-linecap: butt; stroke-linejoin: miter; stroke-miterlimit: 10; fill: rgb(0,0,0); fill-rule: nonzero; opacity: 1;" transform=" matrix(1 0 0 1 0 0) " stroke-linecap="round" />
	<path d="M 59.282 90 c -0.553 0 -1 -0.447 -1 -1 v -1.209 c 0 -0.553 0.447 -1 1 -1 s 1 0.447 1 1 V 89 C 60.282 89.553 59.835 90 59.282 90 z" style="stroke: none; stroke-width: 1; stroke-dasharray: none; stroke-linecap: butt; stroke-linejoin: miter; stroke-miterlimit: 10; fill: rgb(0,0,0); fill-rule: nonzero; opacity: 1;" transform=" matrix(1 0 0 1 0 0) " stroke-linecap="round" />
	<path d="M 34.809 73.55 c -3.034 0 -5.502 -2.468 -5.502 -5.502 s 2.468 -5.502 5.502 -5.502 s 5.502 2.468 5.502 5.502 S 37.843 73.55 34.809 73.55 z M 34.809 64.546 c -1.931 0 -3.502 1.571 -3.502 3.502 s 1.571 3.502 3.502 3.502 s 3.502 -1.571 3.502 -3.502 S 36.74 64.546 34.809 64.546 z" style="stroke: none; stroke-width: 1; stroke-dasharray: none; stroke-linecap: butt; stroke-linejoin: miter; stroke-miterlimit: 10; fill: rgb(0,0,0); fill-rule: nonzero; opacity: 1;" transform=" matrix(1 0 0 1 0 0) " stroke-linecap="round" />
	<path d="M 73.189 42.15 c -0.26 0 -0.52 -0.11 -0.699 -0.29 c -0.101 -0.09 -0.171 -0.2 -0.221 -0.33 c -0.05 -0.12 -0.08 -0.25 -0.08 -0.38 c 0 -0.26 0.11 -0.52 0.301 -0.71 c 0.04 -0.04 0.09 -0.08 0.149 -0.12 c 0.05 -0.04 0.11 -0.07 0.17 -0.09 c 0.061 -0.03 0.12 -0.05 0.19 -0.06 c 0.33 -0.06 0.67 0.04 0.899 0.27 c 0.19 0.19 0.29 0.45 0.29 0.71 c 0 0.13 -0.02 0.26 -0.069 0.38 c -0.051 0.13 -0.13 0.24 -0.221 0.33 C 73.72 42.04 73.46 42.15 73.189 42.15 z" style="stroke: none; stroke-width: 1; stroke-dasharray: none; stroke-linecap: butt; stroke-linejoin: miter; stroke-miterlimit: 10; fill: rgb(0,0,0); fill-rule: nonzero; opacity: 1;" transform=" matrix(1 0 0 1 0 0) " stroke-linecap="round" />
	<path d="M 52.43 24.5 c -0.26 0 -0.52 -0.1 -0.71 -0.29 c -0.18 -0.19 -0.29 -0.44 -0.29 -0.71 c 0 -0.26 0.11 -0.52 0.29 -0.71 c 0.38 -0.37 1.05 -0.37 1.42 0 c 0.09 0.1 0.16 0.21 0.21 0.33 c 0.05 0.12 0.08 0.25 0.08 0.38 c 0 0.27 -0.11 0.52 -0.29 0.71 C 52.95 24.4 52.689 24.5 52.43 24.5 z" style="stroke: none; stroke-width: 1; stroke-dasharray: none; stroke-linecap: butt; stroke-linejoin: miter; stroke-miterlimit: 10; fill: rgb(0,0,0); fill-rule: nonzero; opacity: 1;" transform=" matrix(1 0 0 1 0 0) " stroke-linecap="round" />
	<path d="M 7.79 39.04 c -0.26 0 -0.52 -0.11 -0.71 -0.29 c -0.18 -0.19 -0.29 -0.45 -0.29 -0.71 c 0 -0.07 0.01 -0.13 0.02 -0.2 c 0.01 -0.06 0.03 -0.12 0.06 -0.19 c 0.02 -0.06 0.05 -0.11 0.09 -0.17 c 0.03 -0.05 0.08 -0.1 0.12 -0.15 c 0.09 -0.09 0.2 -0.17 0.33 -0.22 c 0.24 -0.1 0.52 -0.1 0.76 0 c 0.12 0.05 0.23 0.13 0.33 0.22 c 0.04 0.05 0.08 0.1 0.12 0.15 c 0.04 0.06 0.07 0.11 0.09 0.17 c 0.03 0.07 0.05 0.13 0.06 0.19 c 0.01 0.07 0.02 0.13 0.02 0.2 c 0 0.13 -0.03 0.26 -0.08 0.38 c -0.05 0.12 -0.12 0.23 -0.21 0.33 C 8.31 38.93 8.05 39.04 7.79 39.04 z" style="stroke: none; stroke-width: 1; stroke-dasharray: none; stroke-linecap: butt; stroke-linejoin: miter; stroke-miterlimit: 10; fill: rgb(0,0,0); fill-rule: nonzero; opacity: 1;" transform=" matrix(1 0 0 1 0 0) " stroke-linecap="round" />
	<path d="M 16.09 71.22 c -0.13 0 -0.26 -0.03 -0.38 -0.08 c -0.12 -0.05 -0.23 -0.12 -0.32 -0.21 c -0.19 -0.189 -0.3 -0.439 -0.3 -0.71 c 0 -0.13 0.03 -0.26 0.08 -0.38 c 0.05 -0.12 0.12 -0.23 0.22 -0.33 c 0.04 -0.04 0.09 -0.08 0.15 -0.12 c 0.05 -0.04 0.11 -0.07 0.17 -0.09 c 0.06 -0.03 0.12 -0.05 0.19 -0.06 c 0.33 -0.07 0.67 0.04 0.9 0.27 c 0.09 0.1 0.17 0.21 0.22 0.33 c 0.05 0.12 0.07 0.25 0.07 0.38 c 0 0.271 -0.1 0.521 -0.29 0.71 c -0.09 0.09 -0.2 0.16 -0.32 0.21 C 16.35 71.189 16.23 71.22 16.09 71.22 z" style="stroke: none; stroke-width: 1; stroke-dasharray: none; stroke-linecap: butt; stroke-linejoin: miter; stroke-miterlimit: 10; fill: rgb(0,0,0); fill-rule: nonzero; opacity: 1;" transform=" matrix(1 0 0 1 0 0) " stroke-linecap="round" />
	<path d="M 73.189 9.97 c -0.06 0 -0.13 -0.01 -0.189 -0.02 c -0.07 -0.01 -0.13 -0.03 -0.19 -0.06 c -0.06 -0.02 -0.12 -0.05 -0.17 -0.09 c -0.06 -0.04 -0.109 -0.08 -0.149 -0.12 c -0.19 -0.19 -0.301 -0.45 -0.301 -0.71 c 0 -0.27 0.11 -0.52 0.301 -0.71 c 0.04 -0.04 0.09 -0.09 0.149 -0.12 c 0.05 -0.04 0.11 -0.07 0.17 -0.09 C 72.87 8.02 72.93 8 73 7.99 c 0.33 -0.07 0.67 0.04 0.899 0.27 c 0.19 0.19 0.29 0.45 0.29 0.71 c 0 0.06 0 0.13 -0.02 0.19 c -0.01 0.07 -0.03 0.13 -0.05 0.19 c -0.03 0.06 -0.061 0.12 -0.101 0.17 c -0.029 0.06 -0.069 0.11 -0.12 0.16 C 73.71 9.86 73.46 9.97 73.189 9.97 z" style="stroke: none; stroke-width: 1; stroke-dasharray: none; stroke-linecap: butt; stroke-linejoin: miter; stroke-miterlimit: 10; fill: rgb(0,0,0); fill-rule: nonzero; opacity: 1;" transform=" matrix(1 0 0 1 0 0) " stroke-linecap="round" />
</g>
</g>
</svg>